<mxfile host="app.diagrams.net" agent="Mozilla/5.0 (Windows NT 10.0; Win64; x64) AppleWebKit/537.36 (KHTML, like Gecko) Chrome/139.0.0.0 Safari/537.36" version="28.1.2">
  <diagram name="Page-1" id="UoyHu0YeWAox9Ww8bLnI">
    <mxGraphModel dx="1188" dy="648" grid="1" gridSize="10" guides="1" tooltips="1" connect="1" arrows="1" fold="1" page="1" pageScale="1" pageWidth="850" pageHeight="1100" math="0" shadow="0">
      <root>
        <mxCell id="0" />
        <mxCell id="1" parent="0" />
        <mxCell id="2kLNK7A61GVSKy3cn9ph-2" value="" style="rounded=1;arcSize=10;dashed=1;strokeColor=#F59D56;fillColor=none;gradientColor=none;dashPattern=8 4;strokeWidth=2;" vertex="1" parent="1">
          <mxGeometry x="270" y="250" width="350" height="330" as="geometry" />
        </mxCell>
        <mxCell id="2kLNK7A61GVSKy3cn9ph-3" value="Ubuntu 24.04 LTS" style="rounded=1;whiteSpace=wrap;html=1;" vertex="1" parent="1">
          <mxGeometry x="290" y="500" width="310" height="60" as="geometry" />
        </mxCell>
        <mxCell id="2kLNK7A61GVSKy3cn9ph-4" value="" style="shape=image;html=1;verticalAlign=top;verticalLabelPosition=bottom;labelBackgroundColor=#ffffff;imageAspect=0;aspect=fixed;image=https://icons.diagrams.net/icon-cache1/Operating_System__Flat_-2035/ubuntu-750.svg" vertex="1" parent="1">
          <mxGeometry x="310" y="510" width="40" height="40" as="geometry" />
        </mxCell>
        <mxCell id="2kLNK7A61GVSKy3cn9ph-7" value="" style="rounded=1;whiteSpace=wrap;html=1;strokeColor=#00FFFF;" vertex="1" parent="1">
          <mxGeometry x="290" y="430" width="310" height="60" as="geometry" />
        </mxCell>
        <mxCell id="2kLNK7A61GVSKy3cn9ph-8" value="" style="image;sketch=0;aspect=fixed;html=1;points=[];align=center;fontSize=12;image=img/lib/mscae/Docker.svg;" vertex="1" parent="1">
          <mxGeometry x="420" y="439.5" width="50" height="41" as="geometry" />
        </mxCell>
        <mxCell id="2kLNK7A61GVSKy3cn9ph-9" value="Istanza EC2 t2.micro" style="text;html=1;align=center;verticalAlign=middle;resizable=0;points=[];autosize=1;strokeColor=none;fillColor=none;" vertex="1" parent="1">
          <mxGeometry x="490" y="580" width="130" height="30" as="geometry" />
        </mxCell>
        <mxCell id="2kLNK7A61GVSKy3cn9ph-10" value="Frontend" style="rounded=1;whiteSpace=wrap;html=1;dashed=1;strokeColor=light-dark(#cfe3ba, #0c2100);" vertex="1" parent="1">
          <mxGeometry x="290" y="270" width="90" height="150" as="geometry" />
        </mxCell>
        <mxCell id="2kLNK7A61GVSKy3cn9ph-11" value="Backend" style="rounded=1;whiteSpace=wrap;html=1;dashed=1;strokeColor=#EA6B66;" vertex="1" parent="1">
          <mxGeometry x="400" y="270" width="90" height="150" as="geometry" />
        </mxCell>
        <mxCell id="2kLNK7A61GVSKy3cn9ph-12" value="" style="rounded=1;whiteSpace=wrap;html=1;dashed=1;strokeColor=#67AB9F;" vertex="1" parent="1">
          <mxGeometry x="510" y="270" width="90" height="150" as="geometry" />
        </mxCell>
        <mxCell id="2kLNK7A61GVSKy3cn9ph-14" value="" style="dashed=0;outlineConnect=0;html=1;align=center;labelPosition=center;verticalLabelPosition=bottom;verticalAlign=top;shape=mxgraph.webicons.mongodb;gradientColor=#DFDEDE" vertex="1" parent="1">
          <mxGeometry x="533.8" y="360" width="42.4" height="42.4" as="geometry" />
        </mxCell>
        <mxCell id="2kLNK7A61GVSKy3cn9ph-15" value="&lt;span style=&quot;color: rgb(0, 0, 0); font-family: Helvetica; font-style: normal; font-variant-ligatures: normal; font-variant-caps: normal; font-weight: 400; letter-spacing: normal; orphans: 2; text-indent: 0px; text-transform: none; widows: 2; word-spacing: 0px; -webkit-text-stroke-width: 0px; white-space: normal; text-decoration-thickness: initial; text-decoration-style: initial; text-decoration-color: initial; float: none; background-color: light-dark(#ffffff, var(--ge-dark-color, #121212)); display: inline !important;&quot;&gt;&lt;font style=&quot;font-size: 12px;&quot;&gt;Database&lt;/font&gt;&lt;/span&gt;&lt;div style=&quot;forced-color-adjust: none; color: rgb(0, 0, 0); font-family: Helvetica; font-style: normal; font-variant-ligatures: normal; font-variant-caps: normal; font-weight: 400; letter-spacing: normal; orphans: 2; text-indent: 0px; text-transform: none; widows: 2; word-spacing: 0px; -webkit-text-stroke-width: 0px; white-space: normal; text-decoration-thickness: initial; text-decoration-style: initial; text-decoration-color: initial;&quot;&gt;&lt;span style=&quot;background-color: light-dark(#ffffff, var(--ge-dark-color, #121212));&quot;&gt;&lt;font style=&quot;font-size: 12px;&quot;&gt;(MongoDB)&lt;/font&gt;&lt;/span&gt;&lt;/div&gt;" style="text;whiteSpace=wrap;html=1;align=center;fontSize=11;" vertex="1" parent="1">
          <mxGeometry x="510" y="300" width="90" height="50" as="geometry" />
        </mxCell>
      </root>
    </mxGraphModel>
  </diagram>
</mxfile>
